<svg viewBox="0 0 488 70" fill="none" xmlns="http://www.w3.org/2000/svg">
<title>Infootgraphics. Data-Driven Football Visualizations & Stories</title>
<path d="M9.648 67L2.448 44.664H7.376L10.704 55.384L12.464 62.392H12.56L14.256 55.384L17.584 44.664H22.352L15.088 67H9.648ZM24.4125 67V63.128H27.2925V48.536H24.4125V44.664H35.0365V48.536H32.1565V63.128H35.0365V67H24.4125ZM46.321 67.384C44.3583 67.384 42.6943 67.0533 41.329 66.392C39.9637 65.7093 38.801 64.8347 37.841 63.768L41.041 60.536C42.5557 62.2427 44.4223 63.096 46.641 63.096C47.8357 63.096 48.721 62.8507 49.297 62.36C49.873 61.8693 50.161 61.2187 50.161 60.408C50.161 59.7893 49.9903 59.2773 49.649 58.872C49.3077 58.4453 48.6143 58.1573 47.569 58.008L45.361 57.72C42.993 57.4213 41.2543 56.7067 40.145 55.576C39.057 54.4453 38.513 52.9413 38.513 51.064C38.513 50.0613 38.705 49.144 39.089 48.312C39.473 47.48 40.017 46.7653 40.721 46.168C41.4463 45.5707 42.321 45.112 43.345 44.792C44.3903 44.4507 45.5743 44.28 46.897 44.28C48.5823 44.28 50.065 44.5467 51.345 45.08C52.625 45.6133 53.7237 46.392 54.641 47.416L51.409 50.68C50.8757 50.0613 50.225 49.56 49.457 49.176C48.7103 48.7707 47.761 48.568 46.609 48.568C45.521 48.568 44.7103 48.76 44.177 49.144C43.6437 49.528 43.377 50.0613 43.377 50.744C43.377 51.512 43.5797 52.0667 43.985 52.408C44.4117 52.7493 45.0943 52.9947 46.033 53.144L48.241 53.496C50.545 53.8587 52.2517 54.5733 53.361 55.64C54.4703 56.6853 55.025 58.1787 55.025 60.12C55.025 61.1867 54.833 62.168 54.449 63.064C54.065 63.96 53.4997 64.728 52.753 65.368C52.0277 66.008 51.121 66.5093 50.033 66.872C48.945 67.2133 47.7077 67.384 46.321 67.384ZM63.6658 44.664V58.36C63.6658 59.9387 63.9751 61.1227 64.5938 61.912C65.2124 62.68 66.2471 63.064 67.6978 63.064C69.1484 63.064 70.1831 62.68 70.8018 61.912C71.4204 61.1227 71.7298 59.9387 71.7298 58.36V44.664H76.4658V57.848C76.4658 59.4907 76.3058 60.92 75.9858 62.136C75.6871 63.3307 75.1858 64.3227 74.4818 65.112C73.7778 65.88 72.8711 66.456 71.7618 66.84C70.6524 67.2027 69.2978 67.384 67.6978 67.384C66.0978 67.384 64.7431 67.2027 63.6338 66.84C62.5244 66.456 61.6178 65.88 60.9138 65.112C60.2098 64.3227 59.6978 63.3307 59.3778 62.136C59.0791 60.92 58.9298 59.4907 58.9298 57.848V44.664H63.6658ZM94.224 67L92.624 61.688H85.168L83.568 67H78.64L86 44.664H92.016L99.28 67H94.224ZM88.944 49.08H88.784L86.32 57.56H91.44L88.944 49.08ZM102.37 67V44.664H107.234V62.68H115.746V67H102.37ZM118.475 67V63.128H121.355V48.536H118.475V44.664H129.099V48.536H126.219V63.128H129.099V67H118.475ZM148.864 67H131.936V62.68L142.944 48.984H132.48V44.664H148.608V48.984L137.568 62.68H148.864V67ZM166.349 67L164.749 61.688H157.293L155.693 67H150.765L158.125 44.664H164.141L171.405 67H166.349ZM161.069 49.08H160.909L158.445 57.56H163.565L161.069 49.08ZM181.714 48.984V67H176.85V48.984H170.802V44.664H187.762V48.984H181.714ZM190.1 67V63.128H192.98V48.536H190.1V44.664H200.724V48.536H197.844V63.128H200.724V67H190.1ZM213.737 67.384C212.265 67.384 210.921 67.1387 209.705 66.648C208.489 66.1573 207.454 65.432 206.601 64.472C205.747 63.4907 205.086 62.2853 204.617 60.856C204.147 59.4053 203.913 57.7307 203.913 55.832C203.913 53.9333 204.147 52.2693 204.617 50.84C205.086 49.3893 205.747 48.184 206.601 47.224C207.454 46.2427 208.489 45.5067 209.705 45.016C210.921 44.5253 212.265 44.28 213.737 44.28C215.209 44.28 216.553 44.5253 217.769 45.016C218.985 45.5067 220.019 46.2427 220.873 47.224C221.726 48.184 222.387 49.3893 222.857 50.84C223.326 52.2693 223.561 53.9333 223.561 55.832C223.561 57.7307 223.326 59.4053 222.857 60.856C222.387 62.2853 221.726 63.4907 220.873 64.472C220.019 65.432 218.985 66.1573 217.769 66.648C216.553 67.1387 215.209 67.384 213.737 67.384ZM213.737 63.064C215.209 63.064 216.35 62.584 217.161 61.624C217.993 60.664 218.409 59.288 218.409 57.496V54.168C218.409 52.376 217.993 51 217.161 50.04C216.35 49.08 215.209 48.6 213.737 48.6C212.265 48.6 211.113 49.08 210.281 50.04C209.47 51 209.065 52.376 209.065 54.168V57.496C209.065 59.288 209.47 60.664 210.281 61.624C211.113 62.584 212.265 63.064 213.737 63.064ZM234.436 56.44L232.292 51.96H232.196V67H227.62V44.664H232.932L239.044 55.224L241.188 59.704H241.284V44.664H245.86V67H240.548L234.436 56.44ZM258.009 67.384C256.046 67.384 254.382 67.0533 253.016 66.392C251.651 65.7093 250.489 64.8347 249.529 63.768L252.729 60.536C254.243 62.2427 256.11 63.096 258.329 63.096C259.523 63.096 260.409 62.8507 260.985 62.36C261.561 61.8693 261.849 61.2187 261.849 60.408C261.849 59.7893 261.678 59.2773 261.337 58.872C260.995 58.4453 260.302 58.1573 259.257 58.008L257.049 57.72C254.681 57.4213 252.942 56.7067 251.833 55.576C250.745 54.4453 250.201 52.9413 250.201 51.064C250.201 50.0613 250.393 49.144 250.777 48.312C251.161 47.48 251.705 46.7653 252.409 46.168C253.134 45.5707 254.009 45.112 255.033 44.792C256.078 44.4507 257.262 44.28 258.585 44.28C260.27 44.28 261.753 44.5467 263.033 45.08C264.313 45.6133 265.411 46.392 266.329 47.416L263.097 50.68C262.563 50.0613 261.913 49.56 261.145 49.176C260.398 48.7707 259.449 48.568 258.297 48.568C257.209 48.568 256.398 48.76 255.865 49.144C255.331 49.528 255.065 50.0613 255.065 50.744C255.065 51.512 255.267 52.0667 255.673 52.408C256.099 52.7493 256.782 52.9947 257.72 53.144L259.929 53.496C262.233 53.8587 263.939 54.5733 265.049 55.64C266.158 56.6853 266.713 58.1787 266.713 60.12C266.713 61.1867 266.521 62.168 266.137 63.064C265.753 63.96 265.187 64.728 264.441 65.368C263.715 66.008 262.809 66.5093 261.721 66.872C260.633 67.2133 259.395 67.384 258.009 67.384Z" fill="url(#paint0_linear_3_28)"/>
<path d="M291.428 65.176C290.724 65.752 289.87 66.264 288.868 66.712C287.865 67.16 286.585 67.384 285.028 67.384C283.79 67.384 282.702 67.2347 281.764 66.936C280.825 66.616 280.036 66.1787 279.396 65.624C278.756 65.048 278.265 64.3867 277.924 63.64C277.604 62.872 277.444 62.04 277.444 61.144C277.444 60.376 277.55 59.6933 277.764 59.096C277.998 58.4987 278.308 57.9547 278.692 57.464C279.097 56.9733 279.577 56.5253 280.132 56.12C280.686 55.7147 281.284 55.32 281.924 54.936C281.604 54.5947 281.294 54.2213 280.996 53.816C280.697 53.4107 280.43 52.984 280.196 52.536C279.961 52.088 279.769 51.6187 279.62 51.128C279.492 50.6373 279.428 50.136 279.428 49.624C279.428 48.8987 279.577 48.216 279.876 47.576C280.196 46.9147 280.644 46.3387 281.22 45.848C281.817 45.3573 282.521 44.9733 283.332 44.696C284.164 44.4187 285.092 44.28 286.116 44.28C287.033 44.28 287.876 44.3973 288.644 44.632C289.433 44.8453 290.116 45.176 290.692 45.624C291.268 46.0507 291.716 46.584 292.036 47.224C292.377 47.864 292.548 48.5893 292.548 49.4C292.548 50.104 292.43 50.744 292.196 51.32C291.961 51.896 291.641 52.4293 291.236 52.92C290.83 53.3893 290.35 53.8267 289.796 54.232C289.262 54.6373 288.697 55.0213 288.1 55.384L291.556 59.128C291.833 58.4453 292.046 57.72 292.196 56.952C292.345 56.184 292.441 55.4267 292.484 54.68H297.828V58.616H295.812C295.449 59.9813 294.969 61.1653 294.372 62.168L298.82 67H293.092L291.428 65.176ZM285.988 47.896C285.412 47.896 284.921 48.056 284.516 48.376C284.132 48.696 283.94 49.144 283.94 49.72V49.848C283.94 50.2747 284.078 50.7013 284.356 51.128C284.633 51.5333 285.102 52.1093 285.764 52.856C286.51 52.408 287.076 51.96 287.46 51.512C287.844 51.0427 288.036 50.488 288.036 49.848V49.72C288.036 49.144 287.833 48.696 287.428 48.376C287.044 48.056 286.564 47.896 285.988 47.896ZM285.732 63.448C286.99 63.448 288.068 63.1493 288.964 62.552L284.26 57.464C283.534 57.8907 283.022 58.328 282.724 58.776C282.425 59.224 282.276 59.736 282.276 60.312V60.632C282.276 61.4427 282.564 62.1147 283.14 62.648C283.716 63.1813 284.58 63.448 285.732 63.448ZM316.165 67.384C314.202 67.384 312.538 67.0533 311.173 66.392C309.807 65.7093 308.645 64.8347 307.685 63.768L310.885 60.536C312.399 62.2427 314.266 63.096 316.485 63.096C317.679 63.096 318.565 62.8507 319.141 62.36C319.717 61.8693 320.005 61.2187 320.005 60.408C320.005 59.7893 319.834 59.2773 319.493 58.872C319.151 58.4453 318.458 58.1573 317.413 58.008L315.205 57.72C312.837 57.4213 311.098 56.7067 309.989 55.576C308.901 54.4453 308.357 52.9413 308.357 51.064C308.357 50.0613 308.549 49.144 308.933 48.312C309.317 47.48 309.861 46.7653 310.565 46.168C311.29 45.5707 312.165 45.112 313.189 44.792C314.234 44.4507 315.418 44.28 316.741 44.28C318.426 44.28 319.909 44.5467 321.189 45.08C322.469 45.6133 323.567 46.392 324.485 47.416L321.253 50.68C320.719 50.0613 320.069 49.56 319.301 49.176C318.554 48.7707 317.605 48.568 316.453 48.568C315.365 48.568 314.554 48.76 314.021 49.144C313.487 49.528 313.221 50.0613 313.221 50.744C313.221 51.512 313.423 52.0667 313.829 52.408C314.255 52.7493 314.938 52.9947 315.877 53.144L318.085 53.496C320.389 53.8587 322.095 54.5733 323.205 55.64C324.314 56.6853 324.869 58.1787 324.869 60.12C324.869 61.1867 324.677 62.168 324.293 63.064C323.909 63.96 323.343 64.728 322.597 65.368C321.871 66.008 320.965 66.5093 319.877 66.872C318.789 67.2133 317.551 67.384 316.165 67.384ZM337.464 48.984V67H332.6V48.984H326.552V44.664H343.512V48.984H337.464ZM354.987 67.384C353.515 67.384 352.171 67.1387 350.955 66.648C349.739 66.1573 348.704 65.432 347.851 64.472C346.997 63.4907 346.336 62.2853 345.867 60.856C345.397 59.4053 345.163 57.7307 345.163 55.832C345.163 53.9333 345.397 52.2693 345.867 50.84C346.336 49.3893 346.997 48.184 347.851 47.224C348.704 46.2427 349.739 45.5067 350.955 45.016C352.171 44.5253 353.515 44.28 354.987 44.28C356.459 44.28 357.803 44.5253 359.019 45.016C360.235 45.5067 361.269 46.2427 362.123 47.224C362.976 48.184 363.637 49.3893 364.107 50.84C364.576 52.2693 364.811 53.9333 364.811 55.832C364.811 57.7307 364.576 59.4053 364.107 60.856C363.637 62.2853 362.976 63.4907 362.123 64.472C361.269 65.432 360.235 66.1573 359.019 66.648C357.803 67.1387 356.459 67.384 354.987 67.384ZM354.987 63.064C356.459 63.064 357.6 62.584 358.411 61.624C359.243 60.664 359.659 59.288 359.659 57.496V54.168C359.659 52.376 359.243 51 358.411 50.04C357.6 49.08 356.459 48.6 354.987 48.6C353.515 48.6 352.363 49.08 351.531 50.04C350.72 51 350.315 52.376 350.315 54.168V57.496C350.315 59.288 350.72 60.664 351.531 61.624C352.363 62.584 353.515 63.064 354.987 63.064ZM373.734 67H368.87V44.664H379.462C380.486 44.664 381.414 44.8347 382.246 45.176C383.078 45.5173 383.782 46.008 384.358 46.648C384.956 47.2667 385.414 48.0133 385.734 48.888C386.054 49.7627 386.214 50.7333 386.214 51.8C386.214 53.3147 385.873 54.6373 385.19 55.768C384.529 56.8987 383.516 57.72 382.15 58.232L386.534 67H381.126L377.222 58.808H373.734V67ZM378.854 54.712C379.58 54.712 380.145 54.5307 380.55 54.168C380.977 53.784 381.19 53.2293 381.19 52.504V51.096C381.19 50.3707 380.977 49.8267 380.55 49.464C380.145 49.08 379.58 48.888 378.854 48.888H373.734V54.712H378.854ZM389.569 67V63.128H392.449V48.536H389.569V44.664H400.193V48.536H397.313V63.128H400.193V67H389.569ZM404.245 67V44.664H419.445V48.984H409.109V53.56H417.973V57.848H409.109V62.68H419.445V67H404.245ZM430.915 67.384C428.952 67.384 427.288 67.0533 425.923 66.392C424.557 65.7093 423.395 64.8347 422.435 63.768L425.635 60.536C427.149 62.2427 429.016 63.096 431.235 63.096C432.429 63.096 433.315 62.8507 433.891 62.36C434.467 61.8693 434.755 61.2187 434.755 60.408C434.755 59.7893 434.584 59.2773 434.243 58.872C433.901 58.4453 433.208 58.1573 432.163 58.008L429.955 57.72C427.587 57.4213 425.848 56.7067 424.739 55.576C423.651 54.4453 423.107 52.9413 423.107 51.064C423.107 50.0613 423.299 49.144 423.683 48.312C424.067 47.48 424.611 46.7653 425.315 46.168C426.04 45.5707 426.915 45.112 427.939 44.792C428.984 44.4507 430.168 44.28 431.491 44.28C433.176 44.28 434.659 44.5467 435.939 45.08C437.219 45.6133 438.317 46.392 439.235 47.416L436.003 50.68C435.469 50.0613 434.819 49.56 434.051 49.176C433.304 48.7707 432.355 48.568 431.203 48.568C430.115 48.568 429.304 48.76 428.771 49.144C428.237 49.528 427.971 50.0613 427.971 50.744C427.971 51.512 428.173 52.0667 428.579 52.408C429.005 52.7493 429.688 52.9947 430.627 53.144L432.835 53.496C435.139 53.8587 436.845 54.5733 437.955 55.64C439.064 56.6853 439.619 58.1787 439.619 60.12C439.619 61.1867 439.427 62.168 439.043 63.064C438.659 63.96 438.093 64.728 437.347 65.368C436.621 66.008 435.715 66.5093 434.627 66.872C433.539 67.2133 432.301 67.384 430.915 67.384Z" fill="#FAFAFA"/>
<path d="M2.464 17.664H10.88C12.352 17.664 13.696 17.8987 14.912 18.368C16.128 18.8373 17.1627 19.5413 18.016 20.48C18.8693 21.3973 19.5307 22.56 20 23.968C20.4693 25.3547 20.704 26.976 20.704 28.832C20.704 30.688 20.4693 32.32 20 33.728C19.5307 35.1147 18.8693 36.2773 18.016 37.216C17.1627 38.1333 16.128 38.8267 14.912 39.296C13.696 39.7653 12.352 40 10.88 40H2.464V17.664ZM10.88 35.68C12.3307 35.68 13.472 35.2747 14.304 34.464C15.136 33.6533 15.552 32.352 15.552 30.56V27.104C15.552 25.312 15.136 24.0107 14.304 23.2C13.472 22.3893 12.3307 21.984 10.88 21.984H7.328V35.68H10.88ZM37.349 40L35.749 34.688H28.293L26.693 40H21.765L29.125 17.664H35.141L42.405 40H37.349ZM32.069 22.08H31.909L29.445 30.56H34.565L32.069 22.08ZM52.7135 21.984V40H47.8495V21.984H41.8015V17.664H58.7615V21.984H52.7135ZM73.7553 40L72.1553 34.688H64.6993L63.0993 40H58.1713L65.5312 17.664H71.5473L78.8113 40H73.7553ZM68.4753 22.08H68.3153L65.8513 30.56H70.9713L68.4753 22.08ZM80.6648 32.544V27.936H90.1688V32.544H80.6648ZM94.339 17.664H102.755C104.227 17.664 105.571 17.8987 106.787 18.368C108.003 18.8373 109.038 19.5413 109.891 20.48C110.744 21.3973 111.406 22.56 111.875 23.968C112.344 25.3547 112.579 26.976 112.579 28.832C112.579 30.688 112.344 32.32 111.875 33.728C111.406 35.1147 110.744 36.2773 109.891 37.216C109.038 38.1333 108.003 38.8267 106.787 39.296C105.571 39.7653 104.227 40 102.755 40H94.339V17.664ZM102.755 35.68C104.206 35.68 105.347 35.2747 106.179 34.464C107.011 33.6533 107.427 32.352 107.427 30.56V27.104C107.427 25.312 107.011 24.0107 106.179 23.2C105.347 22.3893 104.206 21.984 102.755 21.984H99.203V35.68H102.755ZM121.516 40H116.652V17.664H127.244C128.268 17.664 129.196 17.8347 130.028 18.176C130.86 18.5173 131.564 19.008 132.14 19.648C132.737 20.2667 133.196 21.0133 133.516 21.888C133.836 22.7627 133.996 23.7333 133.996 24.8C133.996 26.3147 133.654 27.6373 132.972 28.768C132.31 29.8987 131.297 30.72 129.932 31.232L134.316 40H128.908L125.004 31.808H121.516V40ZM126.636 27.712C127.361 27.712 127.926 27.5307 128.332 27.168C128.758 26.784 128.972 26.2293 128.972 25.504V24.096C128.972 23.3707 128.758 22.8267 128.332 22.464C127.926 22.08 127.361 21.888 126.636 21.888H121.516V27.712H126.636ZM137.35 40V36.128H140.23V21.536H137.35V17.664H147.974V21.536H145.094V36.128H147.974V40H137.35ZM157.211 40L150.011 17.664H154.939L158.267 28.384L160.027 35.392H160.123L161.819 28.384L165.147 17.664H169.915L162.651 40H157.211ZM172.839 40V17.664H188.039V21.984H177.703V26.56H186.567V30.848H177.703V35.68H188.039V40H172.839ZM199.093 29.44L196.949 24.96H196.853V40H192.277V17.664H197.589L203.701 28.224L205.845 32.704H205.941V17.664H210.517V40H205.205L199.093 29.44Z" fill="#FAFAFA"/>
<path d="M222.995 40V17.664H237.811V21.984H227.859V26.56H236.339V30.848H227.859V40H222.995ZM249.705 40.384C248.233 40.384 246.889 40.1387 245.673 39.648C244.457 39.1573 243.423 38.432 242.569 37.472C241.716 36.4907 241.055 35.2853 240.585 33.856C240.116 32.4053 239.881 30.7307 239.881 28.832C239.881 26.9333 240.116 25.2693 240.585 23.84C241.055 22.3893 241.716 21.184 242.569 20.224C243.423 19.2427 244.457 18.5067 245.673 18.016C246.889 17.5253 248.233 17.28 249.705 17.28C251.177 17.28 252.521 17.5253 253.737 18.016C254.953 18.5067 255.988 19.2427 256.841 20.224C257.695 21.184 258.356 22.3893 258.825 23.84C259.295 25.2693 259.529 26.9333 259.529 28.832C259.529 30.7307 259.295 32.4053 258.825 33.856C258.356 35.2853 257.695 36.4907 256.841 37.472C255.988 38.432 254.953 39.1573 253.737 39.648C252.521 40.1387 251.177 40.384 249.705 40.384ZM249.705 36.064C251.177 36.064 252.319 35.584 253.129 34.624C253.961 33.664 254.377 32.288 254.377 30.496V27.168C254.377 25.376 253.961 24 253.129 23.04C252.319 22.08 251.177 21.6 249.705 21.6C248.233 21.6 247.081 22.08 246.249 23.04C245.439 24 245.033 25.376 245.033 27.168V30.496C245.033 32.288 245.439 33.664 246.249 34.624C247.081 35.584 248.233 36.064 249.705 36.064ZM272.549 40.384C271.077 40.384 269.733 40.1387 268.517 39.648C267.301 39.1573 266.266 38.432 265.413 37.472C264.56 36.4907 263.898 35.2853 263.429 33.856C262.96 32.4053 262.725 30.7307 262.725 28.832C262.725 26.9333 262.96 25.2693 263.429 23.84C263.898 22.3893 264.56 21.184 265.413 20.224C266.266 19.2427 267.301 18.5067 268.517 18.016C269.733 17.5253 271.077 17.28 272.549 17.28C274.021 17.28 275.365 17.5253 276.581 18.016C277.797 18.5067 278.832 19.2427 279.685 20.224C280.538 21.184 281.2 22.3893 281.669 23.84C282.138 25.2693 282.373 26.9333 282.373 28.832C282.373 30.7307 282.138 32.4053 281.669 33.856C281.2 35.2853 280.538 36.4907 279.685 37.472C278.832 38.432 277.797 39.1573 276.581 39.648C275.365 40.1387 274.021 40.384 272.549 40.384ZM272.549 36.064C274.021 36.064 275.162 35.584 275.973 34.624C276.805 33.664 277.221 32.288 277.221 30.496V27.168C277.221 25.376 276.805 24 275.973 23.04C275.162 22.08 274.021 21.6 272.549 21.6C271.077 21.6 269.925 22.08 269.093 23.04C268.282 24 267.877 25.376 267.877 27.168V30.496C267.877 32.288 268.282 33.664 269.093 34.624C269.925 35.584 271.077 36.064 272.549 36.064ZM294.932 21.984V40H290.068V21.984H284.02V17.664H300.98V21.984H294.932ZM304.308 17.664H315.156C317.012 17.664 318.452 18.1867 319.476 19.232C320.521 20.2773 321.044 21.664 321.044 23.392C321.044 24.2453 320.926 24.9707 320.692 25.568C320.478 26.1653 320.18 26.656 319.796 27.04C319.433 27.424 318.996 27.712 318.484 27.904C317.993 28.0747 317.46 28.1707 316.884 28.192V28.384C317.417 28.384 317.972 28.48 318.548 28.672C319.145 28.864 319.689 29.1733 320.18 29.6C320.67 30.0053 321.076 30.5387 321.396 31.2C321.737 31.8613 321.908 32.672 321.908 33.632C321.908 34.5067 321.758 35.3387 321.46 36.128C321.182 36.896 320.788 37.568 320.276 38.144C319.764 38.72 319.156 39.1787 318.452 39.52C317.748 39.84 316.98 40 316.148 40H304.308V17.664ZM309.172 35.904H314.772C315.412 35.904 315.913 35.7333 316.276 35.392C316.66 35.0293 316.852 34.528 316.852 33.888V32.8C316.852 32.16 316.66 31.6693 316.276 31.328C315.913 30.9653 315.412 30.784 314.772 30.784H309.172V35.904ZM309.172 26.816H314.004C314.644 26.816 315.145 26.6347 315.508 26.272C315.87 25.9093 316.052 25.408 316.052 24.768V23.808C316.052 23.168 315.87 22.6667 315.508 22.304C315.145 21.9413 314.644 21.76 314.004 21.76H309.172V26.816ZM338.943 40L337.343 34.688H329.887L328.287 40H323.359L330.719 17.664H336.735L343.999 40H338.943ZM333.663 22.08H333.503L331.039 30.56H336.159L333.663 22.08ZM347.089 40V17.664H351.953V35.68H360.465V40H347.089ZM364.058 40V17.664H368.922V35.68H377.434V40H364.058Z" fill="url(#paint1_linear_3_28)"/>
<path d="M2.672 13V11.896H3.812V5.728H2.672V4.624H6.32V5.728H5.168V11.896H6.32V13H2.672ZM10.2802 8.368L9.35619 6.592H9.32019V13H8.02419V4.624H9.53619L12.2722 9.256L13.1962 11.032H13.2322V4.624H14.5282V13H13.0162L10.2802 8.368ZM16.5906 13V4.624H21.8226V5.824H17.9466V8.152H21.3906V9.352H17.9466V13H16.5906ZM26.3931 13.144C25.8491 13.144 25.3531 13.052 24.9051 12.868C24.4651 12.676 24.0851 12.4 23.7651 12.04C23.4531 11.672 23.2091 11.22 23.0331 10.684C22.8651 10.14 22.7811 9.516 22.7811 8.812C22.7811 8.108 22.8651 7.488 23.0331 6.952C23.2091 6.408 23.4531 5.956 23.7651 5.596C24.0851 5.228 24.4651 4.952 24.9051 4.768C25.3531 4.576 25.8491 4.48 26.3931 4.48C26.9371 4.48 27.4291 4.576 27.8691 4.768C28.3171 4.952 28.6971 5.228 29.0091 5.596C29.3291 5.956 29.5731 6.408 29.7411 6.952C29.9171 7.488 30.0051 8.108 30.0051 8.812C30.0051 9.516 29.9171 10.14 29.7411 10.684C29.5731 11.22 29.3291 11.672 29.0091 12.04C28.6971 12.4 28.3171 12.676 27.8691 12.868C27.4291 13.052 26.9371 13.144 26.3931 13.144ZM26.3931 11.932C26.7131 11.932 27.0051 11.876 27.2691 11.764C27.5411 11.652 27.7691 11.492 27.9531 11.284C28.1451 11.068 28.2931 10.808 28.3971 10.504C28.5011 10.2 28.5531 9.856 28.5531 9.472V8.152C28.5531 7.768 28.5011 7.424 28.3971 7.12C28.2931 6.816 28.1451 6.56 27.9531 6.352C27.7691 6.136 27.5411 5.972 27.2691 5.86C27.0051 5.748 26.7131 5.692 26.3931 5.692C26.0651 5.692 25.7691 5.748 25.5051 5.86C25.2411 5.972 25.0131 6.136 24.8211 6.352C24.6371 6.56 24.4931 6.816 24.3891 7.12C24.2851 7.424 24.2331 7.768 24.2331 8.152V9.472C24.2331 9.856 24.2851 10.2 24.3891 10.504C24.4931 10.808 24.6371 11.068 24.8211 11.284C25.0131 11.492 25.2411 11.652 25.5051 11.764C25.7691 11.876 26.0651 11.932 26.3931 11.932ZM34.9361 13.144C34.3921 13.144 33.8961 13.052 33.4481 12.868C33.0081 12.676 32.6281 12.4 32.3081 12.04C31.9961 11.672 31.7521 11.22 31.5761 10.684C31.4081 10.14 31.3241 9.516 31.3241 8.812C31.3241 8.108 31.4081 7.488 31.5761 6.952C31.7521 6.408 31.9961 5.956 32.3081 5.596C32.6281 5.228 33.0081 4.952 33.4481 4.768C33.8961 4.576 34.3921 4.48 34.9361 4.48C35.4801 4.48 35.9721 4.576 36.4121 4.768C36.8601 4.952 37.2401 5.228 37.5521 5.596C37.8721 5.956 38.1161 6.408 38.2841 6.952C38.4601 7.488 38.5481 8.108 38.5481 8.812C38.5481 9.516 38.4601 10.14 38.2841 10.684C38.1161 11.22 37.8721 11.672 37.5521 12.04C37.2401 12.4 36.8601 12.676 36.4121 12.868C35.9721 13.052 35.4801 13.144 34.9361 13.144ZM34.9361 11.932C35.2561 11.932 35.5481 11.876 35.8121 11.764C36.0841 11.652 36.3121 11.492 36.4961 11.284C36.6881 11.068 36.8361 10.808 36.9401 10.504C37.0441 10.2 37.0961 9.856 37.0961 9.472V8.152C37.0961 7.768 37.0441 7.424 36.9401 7.12C36.8361 6.816 36.6881 6.56 36.4961 6.352C36.3121 6.136 36.0841 5.972 35.8121 5.86C35.5481 5.748 35.2561 5.692 34.9361 5.692C34.6081 5.692 34.3121 5.748 34.0481 5.86C33.7841 5.972 33.5561 6.136 33.3641 6.352C33.1801 6.56 33.0361 6.816 32.9321 7.12C32.8281 7.424 32.7761 7.768 32.7761 8.152V9.472C32.7761 9.856 32.8281 10.2 32.9321 10.504C33.0361 10.808 33.1801 11.068 33.3641 11.284C33.5561 11.492 33.7841 11.652 34.0481 11.764C34.3121 11.876 34.6081 11.932 34.9361 11.932ZM43.0775 5.824V13H41.7215V5.824H39.2255V4.624H45.5735V5.824H43.0775ZM52.0138 11.728H51.9658C51.8778 12.136 51.6378 12.476 51.2458 12.748C50.8618 13.012 50.3498 13.144 49.7098 13.144C49.2138 13.144 48.7538 13.052 48.3298 12.868C47.9058 12.676 47.5378 12.4 47.2258 12.04C46.9218 11.672 46.6818 11.22 46.5058 10.684C46.3378 10.14 46.2538 9.516 46.2538 8.812C46.2538 8.116 46.3418 7.5 46.5178 6.964C46.6938 6.42 46.9418 5.964 47.2618 5.596C47.5818 5.228 47.9658 4.952 48.4138 4.768C48.8618 4.576 49.3618 4.48 49.9138 4.48C50.6658 4.48 51.3018 4.648 51.8218 4.984C52.3418 5.312 52.7458 5.772 53.0338 6.364L51.9297 7.012C51.7698 6.62 51.5218 6.304 51.1858 6.064C50.8498 5.816 50.4258 5.692 49.9138 5.692C49.2498 5.692 48.7138 5.904 48.3058 6.328C47.9058 6.752 47.7058 7.352 47.7058 8.128V9.496C47.7058 10.272 47.9058 10.872 48.3058 11.296C48.7138 11.72 49.2498 11.932 49.9138 11.932C50.1778 11.932 50.4298 11.9 50.6698 11.836C50.9098 11.764 51.1178 11.664 51.2938 11.536C51.4778 11.4 51.6218 11.236 51.7258 11.044C51.8378 10.844 51.8938 10.612 51.8938 10.348V9.7H50.1658V8.536H53.2018V13H52.0138V11.728ZM56.4427 13H55.0867V4.624H58.6987C59.4507 4.624 60.0427 4.852 60.4747 5.308C60.9067 5.756 61.1227 6.368 61.1227 7.144C61.1227 7.744 60.9827 8.244 60.7027 8.644C60.4307 9.036 60.0267 9.312 59.4907 9.472L61.3027 13H59.7907L58.1107 9.616H56.4427V13ZM58.6027 8.476C58.9467 8.476 59.2147 8.388 59.4067 8.212C59.5987 8.028 59.6947 7.768 59.6947 7.432V6.856C59.6947 6.52 59.5987 6.264 59.4067 6.088C59.2147 5.904 58.9467 5.812 58.6027 5.812H56.4427V8.476H58.6027ZM68.182 13L67.426 10.732H64.294L63.562 13H62.182L65.038 4.624H66.742L69.598 13H68.182ZM65.89 5.872H65.83L64.618 9.568H67.09L65.89 5.872ZM70.8953 13V4.624H74.4953C75.2713 4.624 75.8713 4.852 76.2953 5.308C76.7193 5.764 76.9313 6.376 76.9313 7.144C76.9313 7.912 76.7193 8.524 76.2953 8.98C75.8713 9.436 75.2713 9.664 74.4953 9.664H72.2513V13H70.8953ZM72.2513 8.476H74.4113C74.7553 8.476 75.0233 8.388 75.2153 8.212C75.4073 8.028 75.5033 7.768 75.5033 7.432V6.856C75.5033 6.52 75.4073 6.264 75.2153 6.088C75.0233 5.904 74.7553 5.812 74.4113 5.812H72.2513V8.476ZM83.5667 9.352H79.7747V13H78.4187V4.624H79.7747V8.152H83.5667V4.624H84.9227V13H83.5667V9.352ZM86.6251 13V11.896H87.7651V5.728H86.6251V4.624H90.2731V5.728H89.1211V11.896H90.2731V13H86.6251ZM95.1213 13.144C94.0253 13.144 93.1653 12.776 92.5413 12.04C91.9173 11.296 91.6053 10.22 91.6053 8.812C91.6053 8.108 91.6853 7.488 91.8453 6.952C92.0053 6.416 92.2373 5.964 92.5413 5.596C92.8453 5.228 93.2133 4.952 93.6453 4.768C94.0853 4.576 94.5773 4.48 95.1213 4.48C95.8493 4.48 96.4573 4.64 96.9453 4.96C97.4413 5.28 97.8293 5.752 98.1093 6.376L96.9693 7C96.8253 6.6 96.6013 6.284 96.2973 6.052C96.0013 5.812 95.6093 5.692 95.1213 5.692C94.4733 5.692 93.9653 5.912 93.5973 6.352C93.2293 6.792 93.0453 7.4 93.0453 8.176V9.448C93.0453 10.224 93.2293 10.832 93.5973 11.272C93.9653 11.712 94.4733 11.932 95.1213 11.932C95.6253 11.932 96.0333 11.804 96.3453 11.548C96.6653 11.284 96.9013 10.948 97.0533 10.54L98.1453 11.2C97.8653 11.808 97.4733 12.284 96.9693 12.628C96.4653 12.972 95.8493 13.144 95.1213 13.144ZM102.091 13.144C101.387 13.144 100.787 13.016 100.291 12.76C99.8028 12.504 99.3828 12.16 99.0308 11.728L99.9668 10.852C100.263 11.212 100.587 11.484 100.939 11.668C101.299 11.852 101.707 11.944 102.163 11.944C102.699 11.944 103.103 11.824 103.375 11.584C103.647 11.344 103.783 11.02 103.783 10.612C103.783 10.284 103.687 10.024 103.495 9.832C103.303 9.64 102.963 9.496 102.475 9.4L101.731 9.268C100.915 9.116 100.303 8.848 99.8948 8.464C99.4868 8.08 99.2828 7.552 99.2828 6.88C99.2828 6.512 99.3508 6.18 99.4868 5.884C99.6308 5.58 99.8268 5.328 100.075 5.128C100.331 4.92 100.639 4.76 100.999 4.648C101.359 4.536 101.763 4.48 102.211 4.48C102.843 4.48 103.391 4.592 103.855 4.816C104.319 5.032 104.715 5.348 105.043 5.764L104.095 6.604C103.879 6.324 103.615 6.1 103.303 5.932C102.991 5.764 102.603 5.68 102.139 5.68C101.659 5.68 101.287 5.776 101.023 5.968C100.759 6.16 100.627 6.44 100.627 6.808C100.627 7.16 100.735 7.424 100.951 7.6C101.167 7.768 101.503 7.896 101.959 7.984L102.703 8.14C103.543 8.3 104.155 8.572 104.539 8.956C104.931 9.34 105.127 9.868 105.127 10.54C105.127 10.932 105.059 11.288 104.923 11.608C104.787 11.928 104.587 12.204 104.323 12.436C104.067 12.66 103.751 12.836 103.375 12.964C102.999 13.084 102.571 13.144 102.091 13.144Z" fill="#FAFAFA"/>
<defs>
<linearGradient id="paint0_linear_3_28" x1="228.5" y1="40" x2="239.1" y2="76.8711" gradientUnits="userSpaceOnUse">
<stop stop-color="#9333EA"/>
<stop offset="1" stop-color="#D97706"/>
</linearGradient>
<linearGradient id="paint1_linear_3_28" x1="226.5" y1="13" x2="237.1" y2="49.8711" gradientUnits="userSpaceOnUse">
<stop stop-color="#9333EA"/>
<stop offset="1" stop-color="#D97706"/>
</linearGradient>
</defs>
</svg>
